%TF.GenerationSoftware,KiCad,Pcbnew,9.0.7*%
%TF.CreationDate,2026-08-05T20:18:40+05:30*%
%TF.ProjectId,USB_to_UART,5553425f-746f-45f5-9541-52542e6b6963,rev?*%
%TF.SameCoordinates,Original*%
%TF.FileFunction,Legend,Top*%
%TF.FilePolarity,Positive*%
%FSLAX46Y46*%
G04 Gerber Fmt 4.6, Leading zero omitted, Abs format (unit mm)*
G04 Created by KiCad (PCBNEW 9.0.7) date 2026-08-05 20:18:40*
%MOMM*%
%LPD*%
G01*
G04 APERTURE LIST*
%ADD10C,0.150000*%
%ADD11C,0.200000*%
%ADD12C,0.125000*%
%ADD13C,0.127000*%
%ADD14C,0.100000*%
%ADD15C,0.120000*%
G04 APERTURE END LIST*
D10*
X131289160Y-77669819D02*
X131622493Y-78669819D01*
X131622493Y-78669819D02*
X131955826Y-77669819D01*
X132860588Y-78574580D02*
X132812969Y-78622200D01*
X132812969Y-78622200D02*
X132670112Y-78669819D01*
X132670112Y-78669819D02*
X132574874Y-78669819D01*
X132574874Y-78669819D02*
X132432017Y-78622200D01*
X132432017Y-78622200D02*
X132336779Y-78526961D01*
X132336779Y-78526961D02*
X132289160Y-78431723D01*
X132289160Y-78431723D02*
X132241541Y-78241247D01*
X132241541Y-78241247D02*
X132241541Y-78098390D01*
X132241541Y-78098390D02*
X132289160Y-77907914D01*
X132289160Y-77907914D02*
X132336779Y-77812676D01*
X132336779Y-77812676D02*
X132432017Y-77717438D01*
X132432017Y-77717438D02*
X132574874Y-77669819D01*
X132574874Y-77669819D02*
X132670112Y-77669819D01*
X132670112Y-77669819D02*
X132812969Y-77717438D01*
X132812969Y-77717438D02*
X132860588Y-77765057D01*
X133860588Y-78574580D02*
X133812969Y-78622200D01*
X133812969Y-78622200D02*
X133670112Y-78669819D01*
X133670112Y-78669819D02*
X133574874Y-78669819D01*
X133574874Y-78669819D02*
X133432017Y-78622200D01*
X133432017Y-78622200D02*
X133336779Y-78526961D01*
X133336779Y-78526961D02*
X133289160Y-78431723D01*
X133289160Y-78431723D02*
X133241541Y-78241247D01*
X133241541Y-78241247D02*
X133241541Y-78098390D01*
X133241541Y-78098390D02*
X133289160Y-77907914D01*
X133289160Y-77907914D02*
X133336779Y-77812676D01*
X133336779Y-77812676D02*
X133432017Y-77717438D01*
X133432017Y-77717438D02*
X133574874Y-77669819D01*
X133574874Y-77669819D02*
X133670112Y-77669819D01*
X133670112Y-77669819D02*
X133812969Y-77717438D01*
X133812969Y-77717438D02*
X133860588Y-77765057D01*
X131860588Y-82869819D02*
X132432016Y-82869819D01*
X132146302Y-83869819D02*
X132146302Y-82869819D01*
X132670112Y-82869819D02*
X133336778Y-83869819D01*
X133336778Y-82869819D02*
X132670112Y-83869819D01*
X131860588Y-75117438D02*
X131765350Y-75069819D01*
X131765350Y-75069819D02*
X131622493Y-75069819D01*
X131622493Y-75069819D02*
X131479636Y-75117438D01*
X131479636Y-75117438D02*
X131384398Y-75212676D01*
X131384398Y-75212676D02*
X131336779Y-75307914D01*
X131336779Y-75307914D02*
X131289160Y-75498390D01*
X131289160Y-75498390D02*
X131289160Y-75641247D01*
X131289160Y-75641247D02*
X131336779Y-75831723D01*
X131336779Y-75831723D02*
X131384398Y-75926961D01*
X131384398Y-75926961D02*
X131479636Y-76022200D01*
X131479636Y-76022200D02*
X131622493Y-76069819D01*
X131622493Y-76069819D02*
X131717731Y-76069819D01*
X131717731Y-76069819D02*
X131860588Y-76022200D01*
X131860588Y-76022200D02*
X131908207Y-75974580D01*
X131908207Y-75974580D02*
X131908207Y-75641247D01*
X131908207Y-75641247D02*
X131717731Y-75641247D01*
X132336779Y-76069819D02*
X132336779Y-75069819D01*
X132336779Y-75069819D02*
X132908207Y-76069819D01*
X132908207Y-76069819D02*
X132908207Y-75069819D01*
X133384398Y-76069819D02*
X133384398Y-75069819D01*
X133384398Y-75069819D02*
X133622493Y-75069819D01*
X133622493Y-75069819D02*
X133765350Y-75117438D01*
X133765350Y-75117438D02*
X133860588Y-75212676D01*
X133860588Y-75212676D02*
X133908207Y-75307914D01*
X133908207Y-75307914D02*
X133955826Y-75498390D01*
X133955826Y-75498390D02*
X133955826Y-75641247D01*
X133955826Y-75641247D02*
X133908207Y-75831723D01*
X133908207Y-75831723D02*
X133860588Y-75926961D01*
X133860588Y-75926961D02*
X133765350Y-76022200D01*
X133765350Y-76022200D02*
X133622493Y-76069819D01*
X133622493Y-76069819D02*
X133384398Y-76069819D01*
X132074873Y-86269819D02*
X131741540Y-85793628D01*
X131503445Y-86269819D02*
X131503445Y-85269819D01*
X131503445Y-85269819D02*
X131884397Y-85269819D01*
X131884397Y-85269819D02*
X131979635Y-85317438D01*
X131979635Y-85317438D02*
X132027254Y-85365057D01*
X132027254Y-85365057D02*
X132074873Y-85460295D01*
X132074873Y-85460295D02*
X132074873Y-85603152D01*
X132074873Y-85603152D02*
X132027254Y-85698390D01*
X132027254Y-85698390D02*
X131979635Y-85746009D01*
X131979635Y-85746009D02*
X131884397Y-85793628D01*
X131884397Y-85793628D02*
X131503445Y-85793628D01*
X132455826Y-86222200D02*
X132598683Y-86269819D01*
X132598683Y-86269819D02*
X132836778Y-86269819D01*
X132836778Y-86269819D02*
X132932016Y-86222200D01*
X132932016Y-86222200D02*
X132979635Y-86174580D01*
X132979635Y-86174580D02*
X133027254Y-86079342D01*
X133027254Y-86079342D02*
X133027254Y-85984104D01*
X133027254Y-85984104D02*
X132979635Y-85888866D01*
X132979635Y-85888866D02*
X132932016Y-85841247D01*
X132932016Y-85841247D02*
X132836778Y-85793628D01*
X132836778Y-85793628D02*
X132646302Y-85746009D01*
X132646302Y-85746009D02*
X132551064Y-85698390D01*
X132551064Y-85698390D02*
X132503445Y-85650771D01*
X132503445Y-85650771D02*
X132455826Y-85555533D01*
X132455826Y-85555533D02*
X132455826Y-85460295D01*
X132455826Y-85460295D02*
X132503445Y-85365057D01*
X132503445Y-85365057D02*
X132551064Y-85317438D01*
X132551064Y-85317438D02*
X132646302Y-85269819D01*
X132646302Y-85269819D02*
X132884397Y-85269819D01*
X132884397Y-85269819D02*
X133027254Y-85317438D01*
X133312969Y-85269819D02*
X133884397Y-85269819D01*
X133598683Y-86269819D02*
X133598683Y-85269819D01*
D11*
G36*
X107896605Y-87002240D02*
G01*
X107963678Y-87069313D01*
X107999130Y-87140218D01*
X108041101Y-87308099D01*
X108041101Y-87426337D01*
X107999130Y-87594218D01*
X107963677Y-87665124D01*
X107896606Y-87732197D01*
X107791541Y-87767219D01*
X107669673Y-87767219D01*
X107669673Y-86967219D01*
X107791541Y-86967219D01*
X107896605Y-87002240D01*
G37*
G36*
X122325178Y-87478430D02*
G01*
X122344630Y-87497882D01*
X122374435Y-87557492D01*
X122374435Y-87653135D01*
X122344630Y-87712743D01*
X122319961Y-87737413D01*
X122260352Y-87767219D01*
X122003007Y-87767219D01*
X122003007Y-87443409D01*
X122220113Y-87443409D01*
X122325178Y-87478430D01*
G37*
G36*
X122272342Y-86997024D02*
G01*
X122297011Y-87021692D01*
X122326816Y-87081302D01*
X122326816Y-87129326D01*
X122297011Y-87188935D01*
X122272342Y-87213603D01*
X122212733Y-87243409D01*
X122003007Y-87243409D01*
X122003007Y-86967219D01*
X122212733Y-86967219D01*
X122272342Y-86997024D01*
G37*
G36*
X117319961Y-86997024D02*
G01*
X117344630Y-87021692D01*
X117374435Y-87081302D01*
X117374435Y-87176945D01*
X117344630Y-87236554D01*
X117319961Y-87261222D01*
X117260352Y-87291028D01*
X117003007Y-87291028D01*
X117003007Y-86967219D01*
X117260352Y-86967219D01*
X117319961Y-86997024D01*
G37*
G36*
X110621407Y-87481504D02*
G01*
X110422702Y-87481504D01*
X110522054Y-87183446D01*
X110621407Y-87481504D01*
G37*
G36*
X116335693Y-87481504D02*
G01*
X116136988Y-87481504D01*
X116236340Y-87183446D01*
X116335693Y-87481504D01*
G37*
G36*
X122685546Y-88078330D02*
G01*
X107358562Y-88078330D01*
X107358562Y-86867219D01*
X107469673Y-86867219D01*
X107469673Y-87867219D01*
X107471594Y-87886728D01*
X107486526Y-87922776D01*
X107514116Y-87950366D01*
X107550164Y-87965298D01*
X107569673Y-87967219D01*
X107807768Y-87967219D01*
X107817641Y-87966246D01*
X107820275Y-87966434D01*
X107823738Y-87965646D01*
X107827277Y-87965298D01*
X107829719Y-87964286D01*
X107839391Y-87962087D01*
X107982247Y-87914468D01*
X108000148Y-87906477D01*
X108002863Y-87904122D01*
X108006183Y-87902747D01*
X108021336Y-87890310D01*
X108116574Y-87795071D01*
X108122866Y-87787404D01*
X108124863Y-87785673D01*
X108126756Y-87782665D01*
X108129011Y-87779918D01*
X108130022Y-87777476D01*
X108135306Y-87769082D01*
X108182925Y-87673845D01*
X108183471Y-87672416D01*
X108183901Y-87671837D01*
X108186822Y-87663660D01*
X108189931Y-87655536D01*
X108189982Y-87654815D01*
X108190496Y-87653377D01*
X108238115Y-87462901D01*
X108238615Y-87459519D01*
X108239180Y-87458156D01*
X108239903Y-87450805D01*
X108240983Y-87443508D01*
X108240765Y-87442049D01*
X108241101Y-87438647D01*
X108241101Y-87295790D01*
X108240765Y-87292387D01*
X108240983Y-87290929D01*
X108239903Y-87283631D01*
X108239180Y-87276281D01*
X108238615Y-87274917D01*
X108238115Y-87271536D01*
X108190496Y-87081060D01*
X108189982Y-87079621D01*
X108189931Y-87078901D01*
X108186822Y-87070776D01*
X108183901Y-87062600D01*
X108183471Y-87062020D01*
X108182925Y-87060592D01*
X108135306Y-86965355D01*
X108130019Y-86956956D01*
X108129010Y-86954519D01*
X108126758Y-86951775D01*
X108124863Y-86948764D01*
X108122865Y-86947031D01*
X108116574Y-86939365D01*
X108044428Y-86867219D01*
X108469673Y-86867219D01*
X108469673Y-87867219D01*
X108471594Y-87886728D01*
X108486526Y-87922776D01*
X108514116Y-87950366D01*
X108550164Y-87965298D01*
X108569673Y-87967219D01*
X109045863Y-87967219D01*
X109065372Y-87965298D01*
X109101420Y-87950366D01*
X109129010Y-87922776D01*
X109143942Y-87886728D01*
X109143942Y-87847710D01*
X109129010Y-87811662D01*
X109101420Y-87784072D01*
X109065372Y-87769140D01*
X109045863Y-87767219D01*
X108669673Y-87767219D01*
X108669673Y-87443409D01*
X108903006Y-87443409D01*
X108922515Y-87441488D01*
X108958563Y-87426556D01*
X108986153Y-87398966D01*
X109001085Y-87362918D01*
X109001085Y-87323900D01*
X108986153Y-87287852D01*
X108958563Y-87260262D01*
X108922515Y-87245330D01*
X108903006Y-87243409D01*
X108669673Y-87243409D01*
X108669673Y-86967219D01*
X109045863Y-86967219D01*
X109065372Y-86965298D01*
X109101420Y-86950366D01*
X109129010Y-86922776D01*
X109143942Y-86886728D01*
X109143942Y-86879726D01*
X109232363Y-86879726D01*
X109236710Y-86898842D01*
X109570043Y-87898841D01*
X109578034Y-87916742D01*
X109582717Y-87922141D01*
X109585912Y-87928531D01*
X109595383Y-87936746D01*
X109603599Y-87946218D01*
X109609987Y-87949412D01*
X109615388Y-87954096D01*
X109627289Y-87958063D01*
X109638498Y-87963667D01*
X109645622Y-87964173D01*
X109652404Y-87966434D01*
X109664913Y-87965544D01*
X109677418Y-87966434D01*
X109684196Y-87964174D01*
X109691324Y-87963668D01*
X109702540Y-87958059D01*
X109714434Y-87954095D01*
X109719831Y-87949414D01*
X109726223Y-87946218D01*
X109734441Y-87936742D01*
X109743910Y-87928530D01*
X109747103Y-87922143D01*
X109751788Y-87916742D01*
X109759779Y-87898842D01*
X109774489Y-87854712D01*
X110089506Y-87854712D01*
X110092272Y-87893632D01*
X110109722Y-87928531D01*
X110139198Y-87954096D01*
X110176214Y-87966434D01*
X110215134Y-87963668D01*
X110250033Y-87946218D01*
X110275598Y-87916742D01*
X110283589Y-87898842D01*
X110356035Y-87681504D01*
X110688073Y-87681504D01*
X110760519Y-87898841D01*
X110768510Y-87916742D01*
X110794075Y-87946218D01*
X110828974Y-87963667D01*
X110867894Y-87966434D01*
X110904910Y-87954095D01*
X110934386Y-87928530D01*
X110951836Y-87893631D01*
X110954602Y-87854711D01*
X110950255Y-87835596D01*
X110627463Y-86867219D01*
X111088721Y-86867219D01*
X111088721Y-87867219D01*
X111090642Y-87886728D01*
X111105574Y-87922776D01*
X111133164Y-87950366D01*
X111169212Y-87965298D01*
X111208230Y-87965298D01*
X111244278Y-87950366D01*
X111271868Y-87922776D01*
X111286800Y-87886728D01*
X111288721Y-87867219D01*
X111288721Y-87243775D01*
X111673325Y-87916833D01*
X111676243Y-87920943D01*
X111677002Y-87922776D01*
X111678868Y-87924642D01*
X111684672Y-87932818D01*
X111695188Y-87940962D01*
X111704592Y-87950366D01*
X111710479Y-87952804D01*
X111715521Y-87956709D01*
X111728353Y-87960208D01*
X111740640Y-87965298D01*
X111747016Y-87965298D01*
X111753165Y-87966975D01*
X111766358Y-87965298D01*
X111779658Y-87965298D01*
X111785546Y-87962858D01*
X111791871Y-87962055D01*
X111803420Y-87955454D01*
X111815706Y-87950366D01*
X111820213Y-87945858D01*
X111825748Y-87942696D01*
X111833892Y-87932179D01*
X111843296Y-87922776D01*
X111845734Y-87916888D01*
X111849639Y-87911847D01*
X111853138Y-87899014D01*
X111858228Y-87886728D01*
X111859210Y-87876750D01*
X111859905Y-87874204D01*
X111859654Y-87872236D01*
X111860149Y-87867219D01*
X111860149Y-87057695D01*
X112088721Y-87057695D01*
X112088721Y-87152933D01*
X112090642Y-87172442D01*
X112092017Y-87175762D01*
X112092272Y-87179346D01*
X112099278Y-87197654D01*
X112146897Y-87292892D01*
X112152182Y-87301288D01*
X112153193Y-87303728D01*
X112155446Y-87306474D01*
X112157340Y-87309482D01*
X112159334Y-87311211D01*
X112165629Y-87318882D01*
X112213248Y-87366500D01*
X112220914Y-87372792D01*
X112222647Y-87374790D01*
X112225655Y-87376683D01*
X112228401Y-87378937D01*
X112230841Y-87379947D01*
X112239238Y-87385233D01*
X112334475Y-87432852D01*
X112335903Y-87433398D01*
X112336483Y-87433828D01*
X112344659Y-87436749D01*
X112352784Y-87439858D01*
X112353504Y-87439909D01*
X112354943Y-87440423D01*
X112534768Y-87485379D01*
X112605675Y-87520833D01*
X112630344Y-87545501D01*
X112660149Y-87605111D01*
X112660149Y-87653135D01*
X112630344Y-87712743D01*
X112605675Y-87737413D01*
X112546066Y-87767219D01*
X112347804Y-87767219D01*
X112220344Y-87724732D01*
X112201228Y-87720385D01*
X112162308Y-87723151D01*
X112127409Y-87740601D01*
X112101844Y-87770077D01*
X112089506Y-87807093D01*
X112092272Y-87846013D01*
X112109722Y-87880912D01*
X112139198Y-87906477D01*
X112157098Y-87914468D01*
X112299955Y-87962087D01*
X112309627Y-87964286D01*
X112312069Y-87965298D01*
X112315606Y-87965646D01*
X112319070Y-87966434D01*
X112321704Y-87966246D01*
X112331578Y-87967219D01*
X112569673Y-87967219D01*
X112589182Y-87965298D01*
X112592502Y-87963922D01*
X112596086Y-87963668D01*
X112614394Y-87956662D01*
X112709632Y-87909043D01*
X112718027Y-87903758D01*
X112720469Y-87902747D01*
X112723216Y-87900491D01*
X112726222Y-87898600D01*
X112727952Y-87896605D01*
X112735622Y-87890310D01*
X112783241Y-87842690D01*
X112789533Y-87835023D01*
X112791530Y-87833292D01*
X112793423Y-87830284D01*
X112795678Y-87827537D01*
X112796689Y-87825095D01*
X112801973Y-87816701D01*
X112849592Y-87721464D01*
X112856598Y-87703155D01*
X112856852Y-87699571D01*
X112858228Y-87696251D01*
X112860149Y-87676742D01*
X112860149Y-87581504D01*
X112858228Y-87561995D01*
X112856852Y-87558674D01*
X112856598Y-87555091D01*
X112849592Y-87536782D01*
X112801973Y-87441545D01*
X112796687Y-87433148D01*
X112795677Y-87430708D01*
X112793423Y-87427962D01*
X112791530Y-87424954D01*
X112789532Y-87423221D01*
X112783240Y-87415555D01*
X112735622Y-87367936D01*
X112727951Y-87361641D01*
X112726222Y-87359647D01*
X112723214Y-87357753D01*
X112720468Y-87355500D01*
X112718028Y-87354489D01*
X112709632Y-87349204D01*
X112614394Y-87301585D01*
X112612967Y-87301039D01*
X112612387Y-87300609D01*
X112604210Y-87297687D01*
X112596086Y-87294579D01*
X112595363Y-87294527D01*
X112593926Y-87294014D01*
X112414101Y-87249057D01*
X112343194Y-87213604D01*
X112318526Y-87188935D01*
X112288721Y-87129325D01*
X112288721Y-87081302D01*
X112318526Y-87021692D01*
X112343194Y-86997023D01*
X112402804Y-86967219D01*
X112601065Y-86967219D01*
X112728526Y-87009706D01*
X112747641Y-87014053D01*
X112786561Y-87011287D01*
X112821460Y-86993837D01*
X112847025Y-86964361D01*
X112859364Y-86927345D01*
X112856597Y-86888425D01*
X112845994Y-86867219D01*
X113088721Y-86867219D01*
X113088721Y-87867219D01*
X113090642Y-87886728D01*
X113105574Y-87922776D01*
X113133164Y-87950366D01*
X113169212Y-87965298D01*
X113208230Y-87965298D01*
X113244278Y-87950366D01*
X113271868Y-87922776D01*
X113286800Y-87886728D01*
X113288721Y-87867219D01*
X113288721Y-87443409D01*
X113660149Y-87443409D01*
X113660149Y-87867219D01*
X113662070Y-87886728D01*
X113677002Y-87922776D01*
X113704592Y-87950366D01*
X113740640Y-87965298D01*
X113779658Y-87965298D01*
X113815706Y-87950366D01*
X113843296Y-87922776D01*
X113858228Y-87886728D01*
X113860149Y-87867219D01*
X113860149Y-86867219D01*
X114898245Y-86867219D01*
X114898245Y-87676742D01*
X114900166Y-87696251D01*
X114901541Y-87699571D01*
X114901796Y-87703155D01*
X114908802Y-87721463D01*
X114956421Y-87816701D01*
X114961704Y-87825093D01*
X114962716Y-87827537D01*
X114964972Y-87830286D01*
X114966864Y-87833291D01*
X114968858Y-87835020D01*
X114975153Y-87842690D01*
X115022771Y-87890310D01*
X115030439Y-87896603D01*
X115032171Y-87898600D01*
X115035179Y-87900493D01*
X115037925Y-87902747D01*
X115040365Y-87903757D01*
X115048762Y-87909043D01*
X115143999Y-87956662D01*
X115162308Y-87963668D01*
X115165891Y-87963922D01*
X115169212Y-87965298D01*
X115188721Y-87967219D01*
X115379197Y-87967219D01*
X115398706Y-87965298D01*
X115402026Y-87963922D01*
X115405610Y-87963668D01*
X115423918Y-87956662D01*
X115519156Y-87909043D01*
X115527551Y-87903758D01*
X115529993Y-87902747D01*
X115532740Y-87900491D01*
X115535746Y-87898600D01*
X115537476Y-87896605D01*
X115545146Y-87890310D01*
X115580743Y-87854712D01*
X115803792Y-87854712D01*
X115806558Y-87893632D01*
X115824008Y-87928531D01*
X115853484Y-87954096D01*
X115890500Y-87966434D01*
X115929420Y-87963668D01*
X115964319Y-87946218D01*
X115989884Y-87916742D01*
X115997875Y-87898842D01*
X116070321Y-87681504D01*
X116402359Y-87681504D01*
X116474805Y-87898841D01*
X116482796Y-87916742D01*
X116508361Y-87946218D01*
X116543260Y-87963667D01*
X116582180Y-87966434D01*
X116619196Y-87954095D01*
X116648672Y-87928530D01*
X116666122Y-87893631D01*
X116668888Y-87854711D01*
X116664541Y-87835596D01*
X116341749Y-86867219D01*
X116803007Y-86867219D01*
X116803007Y-87867219D01*
X116804928Y-87886728D01*
X116819860Y-87922776D01*
X116847450Y-87950366D01*
X116883498Y-87965298D01*
X116922516Y-87965298D01*
X116958564Y-87950366D01*
X116986154Y-87922776D01*
X117001086Y-87886728D01*
X117003007Y-87867219D01*
X117003007Y-87491028D01*
X117089037Y-87491028D01*
X117392512Y-87924565D01*
X117405273Y-87939446D01*
X117438178Y-87960415D01*
X117476603Y-87967196D01*
X117514697Y-87958756D01*
X117546662Y-87936381D01*
X117567631Y-87903476D01*
X117574412Y-87865052D01*
X117565972Y-87826957D01*
X117556358Y-87809873D01*
X117326390Y-87481347D01*
X117328680Y-87480471D01*
X117423918Y-87432852D01*
X117432314Y-87427566D01*
X117434754Y-87426556D01*
X117437500Y-87424302D01*
X117440508Y-87422409D01*
X117442237Y-87420414D01*
X117449908Y-87414120D01*
X117497526Y-87366501D01*
X117503818Y-87358834D01*
X117505816Y-87357102D01*
X117507709Y-87354093D01*
X117509963Y-87351348D01*
X117510973Y-87348907D01*
X117516259Y-87340511D01*
X117563878Y-87245274D01*
X117570884Y-87226965D01*
X117571138Y-87223381D01*
X117572514Y-87220061D01*
X117574435Y-87200552D01*
X117574435Y-87057695D01*
X117572514Y-87038186D01*
X117571138Y-87034865D01*
X117570884Y-87031282D01*
X117563878Y-87012973D01*
X117516259Y-86917736D01*
X117510973Y-86909339D01*
X117509963Y-86906899D01*
X117507709Y-86904153D01*
X117505816Y-86901145D01*
X117503818Y-86899412D01*
X117497526Y-86891746D01*
X117453491Y-86847710D01*
X117662071Y-86847710D01*
X117662071Y-86886728D01*
X117677003Y-86922776D01*
X117704593Y-86950366D01*
X117740641Y-86965298D01*
X117760150Y-86967219D01*
X117945864Y-86967219D01*
X117945864Y-87867219D01*
X117947785Y-87886728D01*
X117962717Y-87922776D01*
X117990307Y-87950366D01*
X118026355Y-87965298D01*
X118065373Y-87965298D01*
X118101421Y-87950366D01*
X118129011Y-87922776D01*
X118143943Y-87886728D01*
X118145864Y-87867219D01*
X118145864Y-87466757D01*
X118566833Y-87466757D01*
X118566833Y-87505775D01*
X118581765Y-87541823D01*
X118609355Y-87569413D01*
X118645403Y-87584345D01*
X118664912Y-87586266D01*
X119426817Y-87586266D01*
X119446326Y-87584345D01*
X119482374Y-87569413D01*
X119509964Y-87541823D01*
X119524896Y-87505775D01*
X119524896Y-87466757D01*
X119509964Y-87430709D01*
X119482374Y-87403119D01*
X119446326Y-87388187D01*
X119426817Y-87386266D01*
X118664912Y-87386266D01*
X118645403Y-87388187D01*
X118609355Y-87403119D01*
X118581765Y-87430709D01*
X118566833Y-87466757D01*
X118145864Y-87466757D01*
X118145864Y-86967219D01*
X118331578Y-86967219D01*
X118351087Y-86965298D01*
X118387135Y-86950366D01*
X118414725Y-86922776D01*
X118429657Y-86886728D01*
X118429657Y-86867219D01*
X119803007Y-86867219D01*
X119803007Y-87676742D01*
X119804928Y-87696251D01*
X119806303Y-87699571D01*
X119806558Y-87703155D01*
X119813564Y-87721463D01*
X119861183Y-87816701D01*
X119866466Y-87825093D01*
X119867478Y-87827537D01*
X119869734Y-87830286D01*
X119871626Y-87833291D01*
X119873620Y-87835020D01*
X119879915Y-87842690D01*
X119927533Y-87890310D01*
X119935201Y-87896603D01*
X119936933Y-87898600D01*
X119939941Y-87900493D01*
X119942687Y-87902747D01*
X119945127Y-87903757D01*
X119953524Y-87909043D01*
X120048761Y-87956662D01*
X120067070Y-87963668D01*
X120070653Y-87963922D01*
X120073974Y-87965298D01*
X120093483Y-87967219D01*
X120283959Y-87967219D01*
X120303468Y-87965298D01*
X120306788Y-87963922D01*
X120310372Y-87963668D01*
X120328680Y-87956662D01*
X120423918Y-87909043D01*
X120432313Y-87903758D01*
X120434755Y-87902747D01*
X120437502Y-87900491D01*
X120440508Y-87898600D01*
X120442238Y-87896605D01*
X120449908Y-87890310D01*
X120497527Y-87842690D01*
X120503819Y-87835023D01*
X120505816Y-87833292D01*
X120507709Y-87830284D01*
X120509964Y-87827537D01*
X120510975Y-87825095D01*
X120516259Y-87816701D01*
X120563878Y-87721464D01*
X120570884Y-87703155D01*
X120571138Y-87699571D01*
X120572514Y-87696251D01*
X120574435Y-87676742D01*
X120574435Y-87057695D01*
X120803007Y-87057695D01*
X120803007Y-87152933D01*
X120804928Y-87172442D01*
X120806303Y-87175762D01*
X120806558Y-87179346D01*
X120813564Y-87197654D01*
X120861183Y-87292892D01*
X120866468Y-87301288D01*
X120867479Y-87303728D01*
X120869732Y-87306474D01*
X120871626Y-87309482D01*
X120873620Y-87311211D01*
X120879915Y-87318882D01*
X120927534Y-87366500D01*
X120935200Y-87372792D01*
X120936933Y-87374790D01*
X120939941Y-87376683D01*
X120942687Y-87378937D01*
X120945127Y-87379947D01*
X120953524Y-87385233D01*
X121048761Y-87432852D01*
X121050189Y-87433398D01*
X121050769Y-87433828D01*
X121058945Y-87436749D01*
X121067070Y-87439858D01*
X121067790Y-87439909D01*
X121069229Y-87440423D01*
X121249054Y-87485379D01*
X121319961Y-87520833D01*
X121344630Y-87545501D01*
X121374435Y-87605111D01*
X121374435Y-87653135D01*
X121344630Y-87712743D01*
X121319961Y-87737413D01*
X121260352Y-87767219D01*
X121062090Y-87767219D01*
X120934630Y-87724732D01*
X120915514Y-87720385D01*
X120876594Y-87723151D01*
X120841695Y-87740601D01*
X120816130Y-87770077D01*
X120803792Y-87807093D01*
X120806558Y-87846013D01*
X120824008Y-87880912D01*
X120853484Y-87906477D01*
X120871384Y-87914468D01*
X121014241Y-87962087D01*
X121023913Y-87964286D01*
X121026355Y-87965298D01*
X121029892Y-87965646D01*
X121033356Y-87966434D01*
X121035990Y-87966246D01*
X121045864Y-87967219D01*
X121283959Y-87967219D01*
X121303468Y-87965298D01*
X121306788Y-87963922D01*
X121310372Y-87963668D01*
X121328680Y-87956662D01*
X121423918Y-87909043D01*
X121432313Y-87903758D01*
X121434755Y-87902747D01*
X121437502Y-87900491D01*
X121440508Y-87898600D01*
X121442238Y-87896605D01*
X121449908Y-87890310D01*
X121497527Y-87842690D01*
X121503819Y-87835023D01*
X121505816Y-87833292D01*
X121507709Y-87830284D01*
X121509964Y-87827537D01*
X121510975Y-87825095D01*
X121516259Y-87816701D01*
X121563878Y-87721464D01*
X121570884Y-87703155D01*
X121571138Y-87699571D01*
X121572514Y-87696251D01*
X121574435Y-87676742D01*
X121574435Y-87581504D01*
X121572514Y-87561995D01*
X121571138Y-87558674D01*
X121570884Y-87555091D01*
X121563878Y-87536782D01*
X121516259Y-87441545D01*
X121510973Y-87433148D01*
X121509963Y-87430708D01*
X121507709Y-87427962D01*
X121505816Y-87424954D01*
X121503818Y-87423221D01*
X121497526Y-87415555D01*
X121449908Y-87367936D01*
X121442237Y-87361641D01*
X121440508Y-87359647D01*
X121437500Y-87357753D01*
X121434754Y-87355500D01*
X121432314Y-87354489D01*
X121423918Y-87349204D01*
X121328680Y-87301585D01*
X121327253Y-87301039D01*
X121326673Y-87300609D01*
X121318496Y-87297687D01*
X121310372Y-87294579D01*
X121309649Y-87294527D01*
X121308212Y-87294014D01*
X121128387Y-87249057D01*
X121057480Y-87213604D01*
X121032812Y-87188935D01*
X121003007Y-87129325D01*
X121003007Y-87081302D01*
X121032812Y-87021692D01*
X121057480Y-86997023D01*
X121117090Y-86967219D01*
X121315351Y-86967219D01*
X121442812Y-87009706D01*
X121461927Y-87014053D01*
X121500847Y-87011287D01*
X121535746Y-86993837D01*
X121561311Y-86964361D01*
X121573650Y-86927345D01*
X121570883Y-86888425D01*
X121560280Y-86867219D01*
X121803007Y-86867219D01*
X121803007Y-87867219D01*
X121804928Y-87886728D01*
X121819860Y-87922776D01*
X121847450Y-87950366D01*
X121883498Y-87965298D01*
X121903007Y-87967219D01*
X122283959Y-87967219D01*
X122303468Y-87965298D01*
X122306788Y-87963922D01*
X122310372Y-87963668D01*
X122328680Y-87956662D01*
X122423918Y-87909043D01*
X122432313Y-87903758D01*
X122434755Y-87902747D01*
X122437502Y-87900491D01*
X122440508Y-87898600D01*
X122442238Y-87896605D01*
X122449908Y-87890310D01*
X122497527Y-87842690D01*
X122503819Y-87835023D01*
X122505816Y-87833292D01*
X122507709Y-87830284D01*
X122509964Y-87827537D01*
X122510975Y-87825095D01*
X122516259Y-87816701D01*
X122563878Y-87721464D01*
X122570884Y-87703155D01*
X122571138Y-87699571D01*
X122572514Y-87696251D01*
X122574435Y-87676742D01*
X122574435Y-87533885D01*
X122572514Y-87514376D01*
X122571138Y-87511055D01*
X122570884Y-87507472D01*
X122563878Y-87489163D01*
X122516259Y-87393926D01*
X122510973Y-87385529D01*
X122509963Y-87383089D01*
X122507709Y-87380343D01*
X122505816Y-87377335D01*
X122503818Y-87375602D01*
X122497526Y-87367936D01*
X122449908Y-87320317D01*
X122449119Y-87319669D01*
X122449907Y-87318882D01*
X122456199Y-87311215D01*
X122458197Y-87309483D01*
X122460090Y-87306474D01*
X122462344Y-87303729D01*
X122463354Y-87301288D01*
X122468640Y-87292892D01*
X122516259Y-87197655D01*
X122523265Y-87179346D01*
X122523519Y-87175762D01*
X122524895Y-87172442D01*
X122526816Y-87152933D01*
X122526816Y-87057695D01*
X122524895Y-87038186D01*
X122523519Y-87034865D01*
X122523265Y-87031282D01*
X122516259Y-87012973D01*
X122468640Y-86917736D01*
X122463354Y-86909339D01*
X122462344Y-86906899D01*
X122460090Y-86904153D01*
X122458197Y-86901145D01*
X122456199Y-86899412D01*
X122449907Y-86891746D01*
X122402289Y-86844127D01*
X122394618Y-86837832D01*
X122392889Y-86835838D01*
X122389881Y-86833944D01*
X122387135Y-86831691D01*
X122384695Y-86830680D01*
X122376299Y-86825395D01*
X122281061Y-86777776D01*
X122262753Y-86770770D01*
X122259169Y-86770515D01*
X122255849Y-86769140D01*
X122236340Y-86767219D01*
X121903007Y-86767219D01*
X121883498Y-86769140D01*
X121847450Y-86784072D01*
X121819860Y-86811662D01*
X121804928Y-86847710D01*
X121803007Y-86867219D01*
X121560280Y-86867219D01*
X121553434Y-86853526D01*
X121523958Y-86827961D01*
X121506057Y-86819970D01*
X121363201Y-86772351D01*
X121353529Y-86770151D01*
X121351087Y-86769140D01*
X121347548Y-86768791D01*
X121344085Y-86768004D01*
X121341451Y-86768191D01*
X121331578Y-86767219D01*
X121093483Y-86767219D01*
X121073974Y-86769140D01*
X121070653Y-86770515D01*
X121067070Y-86770770D01*
X121048761Y-86777776D01*
X120953524Y-86825395D01*
X120945127Y-86830680D01*
X120942687Y-86831691D01*
X120939941Y-86833944D01*
X120936933Y-86835838D01*
X120935200Y-86837835D01*
X120927534Y-86844128D01*
X120879915Y-86891746D01*
X120873620Y-86899416D01*
X120871626Y-86901146D01*
X120869732Y-86904153D01*
X120867479Y-86906900D01*
X120866468Y-86909339D01*
X120861183Y-86917736D01*
X120813564Y-87012974D01*
X120806558Y-87031282D01*
X120806303Y-87034865D01*
X120804928Y-87038186D01*
X120803007Y-87057695D01*
X120574435Y-87057695D01*
X120574435Y-86867219D01*
X120572514Y-86847710D01*
X120557582Y-86811662D01*
X120529992Y-86784072D01*
X120493944Y-86769140D01*
X120454926Y-86769140D01*
X120418878Y-86784072D01*
X120391288Y-86811662D01*
X120376356Y-86847710D01*
X120374435Y-86867219D01*
X120374435Y-87653135D01*
X120344630Y-87712743D01*
X120319961Y-87737413D01*
X120260352Y-87767219D01*
X120117090Y-87767219D01*
X120057480Y-87737414D01*
X120032813Y-87712746D01*
X120003007Y-87653134D01*
X120003007Y-86867219D01*
X120001086Y-86847710D01*
X119986154Y-86811662D01*
X119958564Y-86784072D01*
X119922516Y-86769140D01*
X119883498Y-86769140D01*
X119847450Y-86784072D01*
X119819860Y-86811662D01*
X119804928Y-86847710D01*
X119803007Y-86867219D01*
X118429657Y-86867219D01*
X118429657Y-86847710D01*
X118414725Y-86811662D01*
X118387135Y-86784072D01*
X118351087Y-86769140D01*
X118331578Y-86767219D01*
X117760150Y-86767219D01*
X117740641Y-86769140D01*
X117704593Y-86784072D01*
X117677003Y-86811662D01*
X117662071Y-86847710D01*
X117453491Y-86847710D01*
X117449908Y-86844127D01*
X117442237Y-86837832D01*
X117440508Y-86835838D01*
X117437500Y-86833944D01*
X117434754Y-86831691D01*
X117432314Y-86830680D01*
X117423918Y-86825395D01*
X117328680Y-86777776D01*
X117310372Y-86770770D01*
X117306788Y-86770515D01*
X117303468Y-86769140D01*
X117283959Y-86767219D01*
X116903007Y-86767219D01*
X116883498Y-86769140D01*
X116847450Y-86784072D01*
X116819860Y-86811662D01*
X116804928Y-86847710D01*
X116803007Y-86867219D01*
X116341749Y-86867219D01*
X116331208Y-86835596D01*
X116323217Y-86817696D01*
X116318532Y-86812294D01*
X116315339Y-86805908D01*
X116305870Y-86797695D01*
X116297652Y-86788220D01*
X116291260Y-86785023D01*
X116285863Y-86780343D01*
X116273969Y-86776378D01*
X116262753Y-86770770D01*
X116255625Y-86770263D01*
X116248847Y-86768004D01*
X116236342Y-86768893D01*
X116223833Y-86768004D01*
X116217051Y-86770264D01*
X116209927Y-86770771D01*
X116198718Y-86776374D01*
X116186817Y-86780342D01*
X116181416Y-86785025D01*
X116175028Y-86788220D01*
X116166812Y-86797691D01*
X116157341Y-86805907D01*
X116154146Y-86812296D01*
X116149463Y-86817696D01*
X116141472Y-86835597D01*
X115808139Y-87835596D01*
X115803792Y-87854712D01*
X115580743Y-87854712D01*
X115592765Y-87842690D01*
X115599057Y-87835023D01*
X115601054Y-87833292D01*
X115602947Y-87830284D01*
X115605202Y-87827537D01*
X115606213Y-87825095D01*
X115611497Y-87816701D01*
X115659116Y-87721464D01*
X115666122Y-87703155D01*
X115666376Y-87699571D01*
X115667752Y-87696251D01*
X115669673Y-87676742D01*
X115669673Y-86867219D01*
X115667752Y-86847710D01*
X115652820Y-86811662D01*
X115625230Y-86784072D01*
X115589182Y-86769140D01*
X115550164Y-86769140D01*
X115514116Y-86784072D01*
X115486526Y-86811662D01*
X115471594Y-86847710D01*
X115469673Y-86867219D01*
X115469673Y-87653135D01*
X115439868Y-87712743D01*
X115415199Y-87737413D01*
X115355590Y-87767219D01*
X115212328Y-87767219D01*
X115152718Y-87737414D01*
X115128051Y-87712746D01*
X115098245Y-87653134D01*
X115098245Y-86867219D01*
X115096324Y-86847710D01*
X115081392Y-86811662D01*
X115053802Y-86784072D01*
X115017754Y-86769140D01*
X114978736Y-86769140D01*
X114942688Y-86784072D01*
X114915098Y-86811662D01*
X114900166Y-86847710D01*
X114898245Y-86867219D01*
X113860149Y-86867219D01*
X113858228Y-86847710D01*
X113843296Y-86811662D01*
X113815706Y-86784072D01*
X113779658Y-86769140D01*
X113740640Y-86769140D01*
X113704592Y-86784072D01*
X113677002Y-86811662D01*
X113662070Y-86847710D01*
X113660149Y-86867219D01*
X113660149Y-87243409D01*
X113288721Y-87243409D01*
X113288721Y-86867219D01*
X113286800Y-86847710D01*
X113271868Y-86811662D01*
X113244278Y-86784072D01*
X113208230Y-86769140D01*
X113169212Y-86769140D01*
X113133164Y-86784072D01*
X113105574Y-86811662D01*
X113090642Y-86847710D01*
X113088721Y-86867219D01*
X112845994Y-86867219D01*
X112839148Y-86853526D01*
X112809672Y-86827961D01*
X112791771Y-86819970D01*
X112648915Y-86772351D01*
X112639243Y-86770151D01*
X112636801Y-86769140D01*
X112633262Y-86768791D01*
X112629799Y-86768004D01*
X112627165Y-86768191D01*
X112617292Y-86767219D01*
X112379197Y-86767219D01*
X112359688Y-86769140D01*
X112356367Y-86770515D01*
X112352784Y-86770770D01*
X112334475Y-86777776D01*
X112239238Y-86825395D01*
X112230841Y-86830680D01*
X112228401Y-86831691D01*
X112225655Y-86833944D01*
X112222647Y-86835838D01*
X112220914Y-86837835D01*
X112213248Y-86844128D01*
X112165629Y-86891746D01*
X112159334Y-86899416D01*
X112157340Y-86901146D01*
X112155446Y-86904153D01*
X112153193Y-86906900D01*
X112152182Y-86909339D01*
X112146897Y-86917736D01*
X112099278Y-87012974D01*
X112092272Y-87031282D01*
X112092017Y-87034865D01*
X112090642Y-87038186D01*
X112088721Y-87057695D01*
X111860149Y-87057695D01*
X111860149Y-86867219D01*
X111858228Y-86847710D01*
X111843296Y-86811662D01*
X111815706Y-86784072D01*
X111779658Y-86769140D01*
X111740640Y-86769140D01*
X111704592Y-86784072D01*
X111677002Y-86811662D01*
X111662070Y-86847710D01*
X111660149Y-86867219D01*
X111660149Y-87490662D01*
X111275545Y-86817605D01*
X111272626Y-86813494D01*
X111271868Y-86811662D01*
X111270001Y-86809795D01*
X111264198Y-86801620D01*
X111253683Y-86793477D01*
X111244278Y-86784072D01*
X111238387Y-86781632D01*
X111233349Y-86777730D01*
X111220520Y-86774231D01*
X111208230Y-86769140D01*
X111201855Y-86769140D01*
X111195706Y-86767463D01*
X111182513Y-86769140D01*
X111169212Y-86769140D01*
X111163323Y-86771579D01*
X111156999Y-86772383D01*
X111145449Y-86778983D01*
X111133164Y-86784072D01*
X111128656Y-86788579D01*
X111123122Y-86791742D01*
X111114979Y-86802256D01*
X111105574Y-86811662D01*
X111103134Y-86817552D01*
X111099232Y-86822591D01*
X111095733Y-86835419D01*
X111090642Y-86847710D01*
X111089659Y-86857687D01*
X111088965Y-86860234D01*
X111089215Y-86862201D01*
X111088721Y-86867219D01*
X110627463Y-86867219D01*
X110616922Y-86835596D01*
X110608931Y-86817696D01*
X110604246Y-86812294D01*
X110601053Y-86805908D01*
X110591584Y-86797695D01*
X110583366Y-86788220D01*
X110576974Y-86785023D01*
X110571577Y-86780343D01*
X110559683Y-86776378D01*
X110548467Y-86770770D01*
X110541339Y-86770263D01*
X110534561Y-86768004D01*
X110522056Y-86768893D01*
X110509547Y-86768004D01*
X110502765Y-86770264D01*
X110495641Y-86770771D01*
X110484432Y-86776374D01*
X110472531Y-86780342D01*
X110467130Y-86785025D01*
X110460742Y-86788220D01*
X110452526Y-86797691D01*
X110443055Y-86805907D01*
X110439860Y-86812296D01*
X110435177Y-86817696D01*
X110427186Y-86835597D01*
X110093853Y-87835596D01*
X110089506Y-87854712D01*
X109774489Y-87854712D01*
X110093112Y-86898842D01*
X110097459Y-86879727D01*
X110094693Y-86840807D01*
X110077243Y-86805908D01*
X110047767Y-86780343D01*
X110010751Y-86768004D01*
X109971831Y-86770771D01*
X109936932Y-86788220D01*
X109911367Y-86817696D01*
X109903376Y-86835597D01*
X109664911Y-87550991D01*
X109426446Y-86835596D01*
X109418455Y-86817696D01*
X109392890Y-86788220D01*
X109357991Y-86770770D01*
X109319071Y-86768004D01*
X109282055Y-86780342D01*
X109252579Y-86805907D01*
X109235129Y-86840806D01*
X109232363Y-86879726D01*
X109143942Y-86879726D01*
X109143942Y-86847710D01*
X109129010Y-86811662D01*
X109101420Y-86784072D01*
X109065372Y-86769140D01*
X109045863Y-86767219D01*
X108569673Y-86767219D01*
X108550164Y-86769140D01*
X108514116Y-86784072D01*
X108486526Y-86811662D01*
X108471594Y-86847710D01*
X108469673Y-86867219D01*
X108044428Y-86867219D01*
X108021336Y-86844127D01*
X108006182Y-86831691D01*
X108002863Y-86830316D01*
X108000148Y-86827961D01*
X107982247Y-86819970D01*
X107839391Y-86772351D01*
X107829719Y-86770151D01*
X107827277Y-86769140D01*
X107823738Y-86768791D01*
X107820275Y-86768004D01*
X107817641Y-86768191D01*
X107807768Y-86767219D01*
X107569673Y-86767219D01*
X107550164Y-86769140D01*
X107514116Y-86784072D01*
X107486526Y-86811662D01*
X107471594Y-86847710D01*
X107469673Y-86867219D01*
X107358562Y-86867219D01*
X107358562Y-86656108D01*
X122685546Y-86656108D01*
X122685546Y-88078330D01*
G37*
D10*
X132455826Y-81269819D02*
X132122493Y-80793628D01*
X131884398Y-81269819D02*
X131884398Y-80269819D01*
X131884398Y-80269819D02*
X132265350Y-80269819D01*
X132265350Y-80269819D02*
X132360588Y-80317438D01*
X132360588Y-80317438D02*
X132408207Y-80365057D01*
X132408207Y-80365057D02*
X132455826Y-80460295D01*
X132455826Y-80460295D02*
X132455826Y-80603152D01*
X132455826Y-80603152D02*
X132408207Y-80698390D01*
X132408207Y-80698390D02*
X132360588Y-80746009D01*
X132360588Y-80746009D02*
X132265350Y-80793628D01*
X132265350Y-80793628D02*
X131884398Y-80793628D01*
X132789160Y-80269819D02*
X133455826Y-81269819D01*
X133455826Y-80269819D02*
X132789160Y-81269819D01*
D12*
X130775999Y-77128464D02*
X130525999Y-76771321D01*
X130347428Y-77128464D02*
X130347428Y-76378464D01*
X130347428Y-76378464D02*
X130633142Y-76378464D01*
X130633142Y-76378464D02*
X130704571Y-76414178D01*
X130704571Y-76414178D02*
X130740285Y-76449892D01*
X130740285Y-76449892D02*
X130775999Y-76521321D01*
X130775999Y-76521321D02*
X130775999Y-76628464D01*
X130775999Y-76628464D02*
X130740285Y-76699892D01*
X130740285Y-76699892D02*
X130704571Y-76735607D01*
X130704571Y-76735607D02*
X130633142Y-76771321D01*
X130633142Y-76771321D02*
X130347428Y-76771321D01*
X131418857Y-76378464D02*
X131275999Y-76378464D01*
X131275999Y-76378464D02*
X131204571Y-76414178D01*
X131204571Y-76414178D02*
X131168857Y-76449892D01*
X131168857Y-76449892D02*
X131097428Y-76557035D01*
X131097428Y-76557035D02*
X131061714Y-76699892D01*
X131061714Y-76699892D02*
X131061714Y-76985607D01*
X131061714Y-76985607D02*
X131097428Y-77057035D01*
X131097428Y-77057035D02*
X131133142Y-77092750D01*
X131133142Y-77092750D02*
X131204571Y-77128464D01*
X131204571Y-77128464D02*
X131347428Y-77128464D01*
X131347428Y-77128464D02*
X131418857Y-77092750D01*
X131418857Y-77092750D02*
X131454571Y-77057035D01*
X131454571Y-77057035D02*
X131490285Y-76985607D01*
X131490285Y-76985607D02*
X131490285Y-76807035D01*
X131490285Y-76807035D02*
X131454571Y-76735607D01*
X131454571Y-76735607D02*
X131418857Y-76699892D01*
X131418857Y-76699892D02*
X131347428Y-76664178D01*
X131347428Y-76664178D02*
X131204571Y-76664178D01*
X131204571Y-76664178D02*
X131133142Y-76699892D01*
X131133142Y-76699892D02*
X131097428Y-76735607D01*
X131097428Y-76735607D02*
X131061714Y-76807035D01*
X110766264Y-84553571D02*
X110016264Y-84553571D01*
X110016264Y-84553571D02*
X110016264Y-84375000D01*
X110016264Y-84375000D02*
X110051978Y-84267857D01*
X110051978Y-84267857D02*
X110123407Y-84196428D01*
X110123407Y-84196428D02*
X110194835Y-84160714D01*
X110194835Y-84160714D02*
X110337692Y-84125000D01*
X110337692Y-84125000D02*
X110444835Y-84125000D01*
X110444835Y-84125000D02*
X110587692Y-84160714D01*
X110587692Y-84160714D02*
X110659121Y-84196428D01*
X110659121Y-84196428D02*
X110730550Y-84267857D01*
X110730550Y-84267857D02*
X110766264Y-84375000D01*
X110766264Y-84375000D02*
X110766264Y-84553571D01*
X110337692Y-83696428D02*
X110301978Y-83767857D01*
X110301978Y-83767857D02*
X110266264Y-83803571D01*
X110266264Y-83803571D02*
X110194835Y-83839285D01*
X110194835Y-83839285D02*
X110159121Y-83839285D01*
X110159121Y-83839285D02*
X110087692Y-83803571D01*
X110087692Y-83803571D02*
X110051978Y-83767857D01*
X110051978Y-83767857D02*
X110016264Y-83696428D01*
X110016264Y-83696428D02*
X110016264Y-83553571D01*
X110016264Y-83553571D02*
X110051978Y-83482143D01*
X110051978Y-83482143D02*
X110087692Y-83446428D01*
X110087692Y-83446428D02*
X110159121Y-83410714D01*
X110159121Y-83410714D02*
X110194835Y-83410714D01*
X110194835Y-83410714D02*
X110266264Y-83446428D01*
X110266264Y-83446428D02*
X110301978Y-83482143D01*
X110301978Y-83482143D02*
X110337692Y-83553571D01*
X110337692Y-83553571D02*
X110337692Y-83696428D01*
X110337692Y-83696428D02*
X110373407Y-83767857D01*
X110373407Y-83767857D02*
X110409121Y-83803571D01*
X110409121Y-83803571D02*
X110480550Y-83839285D01*
X110480550Y-83839285D02*
X110623407Y-83839285D01*
X110623407Y-83839285D02*
X110694835Y-83803571D01*
X110694835Y-83803571D02*
X110730550Y-83767857D01*
X110730550Y-83767857D02*
X110766264Y-83696428D01*
X110766264Y-83696428D02*
X110766264Y-83553571D01*
X110766264Y-83553571D02*
X110730550Y-83482143D01*
X110730550Y-83482143D02*
X110694835Y-83446428D01*
X110694835Y-83446428D02*
X110623407Y-83410714D01*
X110623407Y-83410714D02*
X110480550Y-83410714D01*
X110480550Y-83410714D02*
X110409121Y-83446428D01*
X110409121Y-83446428D02*
X110373407Y-83482143D01*
X110373407Y-83482143D02*
X110337692Y-83553571D01*
X115211264Y-84553571D02*
X114461264Y-84553571D01*
X114461264Y-84553571D02*
X114461264Y-84375000D01*
X114461264Y-84375000D02*
X114496978Y-84267857D01*
X114496978Y-84267857D02*
X114568407Y-84196428D01*
X114568407Y-84196428D02*
X114639835Y-84160714D01*
X114639835Y-84160714D02*
X114782692Y-84125000D01*
X114782692Y-84125000D02*
X114889835Y-84125000D01*
X114889835Y-84125000D02*
X115032692Y-84160714D01*
X115032692Y-84160714D02*
X115104121Y-84196428D01*
X115104121Y-84196428D02*
X115175550Y-84267857D01*
X115175550Y-84267857D02*
X115211264Y-84375000D01*
X115211264Y-84375000D02*
X115211264Y-84553571D01*
X114461264Y-83875000D02*
X114461264Y-83375000D01*
X114461264Y-83375000D02*
X115211264Y-83696428D01*
X130347428Y-74347464D02*
X130347428Y-73597464D01*
X130347428Y-73597464D02*
X130525999Y-73597464D01*
X130525999Y-73597464D02*
X130633142Y-73633178D01*
X130633142Y-73633178D02*
X130704571Y-73704607D01*
X130704571Y-73704607D02*
X130740285Y-73776035D01*
X130740285Y-73776035D02*
X130775999Y-73918892D01*
X130775999Y-73918892D02*
X130775999Y-74026035D01*
X130775999Y-74026035D02*
X130740285Y-74168892D01*
X130740285Y-74168892D02*
X130704571Y-74240321D01*
X130704571Y-74240321D02*
X130633142Y-74311750D01*
X130633142Y-74311750D02*
X130525999Y-74347464D01*
X130525999Y-74347464D02*
X130347428Y-74347464D01*
X131490285Y-74347464D02*
X131061714Y-74347464D01*
X131275999Y-74347464D02*
X131275999Y-73597464D01*
X131275999Y-73597464D02*
X131204571Y-73704607D01*
X131204571Y-73704607D02*
X131133142Y-73776035D01*
X131133142Y-73776035D02*
X131061714Y-73811750D01*
X130775999Y-82348464D02*
X130525999Y-81991321D01*
X130347428Y-82348464D02*
X130347428Y-81598464D01*
X130347428Y-81598464D02*
X130633142Y-81598464D01*
X130633142Y-81598464D02*
X130704571Y-81634178D01*
X130704571Y-81634178D02*
X130740285Y-81669892D01*
X130740285Y-81669892D02*
X130775999Y-81741321D01*
X130775999Y-81741321D02*
X130775999Y-81848464D01*
X130775999Y-81848464D02*
X130740285Y-81919892D01*
X130740285Y-81919892D02*
X130704571Y-81955607D01*
X130704571Y-81955607D02*
X130633142Y-81991321D01*
X130633142Y-81991321D02*
X130347428Y-81991321D01*
X131025999Y-81598464D02*
X131525999Y-81598464D01*
X131525999Y-81598464D02*
X131204571Y-82348464D01*
X110764464Y-77468000D02*
X110407321Y-77718000D01*
X110764464Y-77896571D02*
X110014464Y-77896571D01*
X110014464Y-77896571D02*
X110014464Y-77610857D01*
X110014464Y-77610857D02*
X110050178Y-77539428D01*
X110050178Y-77539428D02*
X110085892Y-77503714D01*
X110085892Y-77503714D02*
X110157321Y-77468000D01*
X110157321Y-77468000D02*
X110264464Y-77468000D01*
X110264464Y-77468000D02*
X110335892Y-77503714D01*
X110335892Y-77503714D02*
X110371607Y-77539428D01*
X110371607Y-77539428D02*
X110407321Y-77610857D01*
X110407321Y-77610857D02*
X110407321Y-77896571D01*
X110764464Y-76753714D02*
X110764464Y-77182285D01*
X110764464Y-76968000D02*
X110014464Y-76968000D01*
X110014464Y-76968000D02*
X110121607Y-77039428D01*
X110121607Y-77039428D02*
X110193035Y-77110857D01*
X110193035Y-77110857D02*
X110228750Y-77182285D01*
D10*
X139266666Y-72904819D02*
X139266666Y-73619104D01*
X139266666Y-73619104D02*
X139219047Y-73761961D01*
X139219047Y-73761961D02*
X139123809Y-73857200D01*
X139123809Y-73857200D02*
X138980952Y-73904819D01*
X138980952Y-73904819D02*
X138885714Y-73904819D01*
X139695238Y-73000057D02*
X139742857Y-72952438D01*
X139742857Y-72952438D02*
X139838095Y-72904819D01*
X139838095Y-72904819D02*
X140076190Y-72904819D01*
X140076190Y-72904819D02*
X140171428Y-72952438D01*
X140171428Y-72952438D02*
X140219047Y-73000057D01*
X140219047Y-73000057D02*
X140266666Y-73095295D01*
X140266666Y-73095295D02*
X140266666Y-73190533D01*
X140266666Y-73190533D02*
X140219047Y-73333390D01*
X140219047Y-73333390D02*
X139647619Y-73904819D01*
X139647619Y-73904819D02*
X140266666Y-73904819D01*
D12*
X130775999Y-86540464D02*
X130525999Y-86183321D01*
X130347428Y-86540464D02*
X130347428Y-85790464D01*
X130347428Y-85790464D02*
X130633142Y-85790464D01*
X130633142Y-85790464D02*
X130704571Y-85826178D01*
X130704571Y-85826178D02*
X130740285Y-85861892D01*
X130740285Y-85861892D02*
X130775999Y-85933321D01*
X130775999Y-85933321D02*
X130775999Y-86040464D01*
X130775999Y-86040464D02*
X130740285Y-86111892D01*
X130740285Y-86111892D02*
X130704571Y-86147607D01*
X130704571Y-86147607D02*
X130633142Y-86183321D01*
X130633142Y-86183321D02*
X130347428Y-86183321D01*
X131454571Y-85790464D02*
X131097428Y-85790464D01*
X131097428Y-85790464D02*
X131061714Y-86147607D01*
X131061714Y-86147607D02*
X131097428Y-86111892D01*
X131097428Y-86111892D02*
X131168857Y-86076178D01*
X131168857Y-86076178D02*
X131347428Y-86076178D01*
X131347428Y-86076178D02*
X131418857Y-86111892D01*
X131418857Y-86111892D02*
X131454571Y-86147607D01*
X131454571Y-86147607D02*
X131490285Y-86219035D01*
X131490285Y-86219035D02*
X131490285Y-86397607D01*
X131490285Y-86397607D02*
X131454571Y-86469035D01*
X131454571Y-86469035D02*
X131418857Y-86504750D01*
X131418857Y-86504750D02*
X131347428Y-86540464D01*
X131347428Y-86540464D02*
X131168857Y-86540464D01*
X131168857Y-86540464D02*
X131097428Y-86504750D01*
X131097428Y-86504750D02*
X131061714Y-86469035D01*
X118726035Y-77468000D02*
X118761750Y-77503714D01*
X118761750Y-77503714D02*
X118797464Y-77610857D01*
X118797464Y-77610857D02*
X118797464Y-77682285D01*
X118797464Y-77682285D02*
X118761750Y-77789428D01*
X118761750Y-77789428D02*
X118690321Y-77860857D01*
X118690321Y-77860857D02*
X118618892Y-77896571D01*
X118618892Y-77896571D02*
X118476035Y-77932285D01*
X118476035Y-77932285D02*
X118368892Y-77932285D01*
X118368892Y-77932285D02*
X118226035Y-77896571D01*
X118226035Y-77896571D02*
X118154607Y-77860857D01*
X118154607Y-77860857D02*
X118083178Y-77789428D01*
X118083178Y-77789428D02*
X118047464Y-77682285D01*
X118047464Y-77682285D02*
X118047464Y-77610857D01*
X118047464Y-77610857D02*
X118083178Y-77503714D01*
X118083178Y-77503714D02*
X118118892Y-77468000D01*
X118047464Y-77218000D02*
X118047464Y-76753714D01*
X118047464Y-76753714D02*
X118333178Y-77003714D01*
X118333178Y-77003714D02*
X118333178Y-76896571D01*
X118333178Y-76896571D02*
X118368892Y-76825143D01*
X118368892Y-76825143D02*
X118404607Y-76789428D01*
X118404607Y-76789428D02*
X118476035Y-76753714D01*
X118476035Y-76753714D02*
X118654607Y-76753714D01*
X118654607Y-76753714D02*
X118726035Y-76789428D01*
X118726035Y-76789428D02*
X118761750Y-76825143D01*
X118761750Y-76825143D02*
X118797464Y-76896571D01*
X118797464Y-76896571D02*
X118797464Y-77110857D01*
X118797464Y-77110857D02*
X118761750Y-77182285D01*
X118761750Y-77182285D02*
X118726035Y-77218000D01*
X113844464Y-77468000D02*
X113487321Y-77718000D01*
X113844464Y-77896571D02*
X113094464Y-77896571D01*
X113094464Y-77896571D02*
X113094464Y-77610857D01*
X113094464Y-77610857D02*
X113130178Y-77539428D01*
X113130178Y-77539428D02*
X113165892Y-77503714D01*
X113165892Y-77503714D02*
X113237321Y-77468000D01*
X113237321Y-77468000D02*
X113344464Y-77468000D01*
X113344464Y-77468000D02*
X113415892Y-77503714D01*
X113415892Y-77503714D02*
X113451607Y-77539428D01*
X113451607Y-77539428D02*
X113487321Y-77610857D01*
X113487321Y-77610857D02*
X113487321Y-77896571D01*
X113165892Y-77182285D02*
X113130178Y-77146571D01*
X113130178Y-77146571D02*
X113094464Y-77075143D01*
X113094464Y-77075143D02*
X113094464Y-76896571D01*
X113094464Y-76896571D02*
X113130178Y-76825143D01*
X113130178Y-76825143D02*
X113165892Y-76789428D01*
X113165892Y-76789428D02*
X113237321Y-76753714D01*
X113237321Y-76753714D02*
X113308750Y-76753714D01*
X113308750Y-76753714D02*
X113415892Y-76789428D01*
X113415892Y-76789428D02*
X113844464Y-77218000D01*
X113844464Y-77218000D02*
X113844464Y-76753714D01*
X126431035Y-74102000D02*
X126466750Y-74137714D01*
X126466750Y-74137714D02*
X126502464Y-74244857D01*
X126502464Y-74244857D02*
X126502464Y-74316285D01*
X126502464Y-74316285D02*
X126466750Y-74423428D01*
X126466750Y-74423428D02*
X126395321Y-74494857D01*
X126395321Y-74494857D02*
X126323892Y-74530571D01*
X126323892Y-74530571D02*
X126181035Y-74566285D01*
X126181035Y-74566285D02*
X126073892Y-74566285D01*
X126073892Y-74566285D02*
X125931035Y-74530571D01*
X125931035Y-74530571D02*
X125859607Y-74494857D01*
X125859607Y-74494857D02*
X125788178Y-74423428D01*
X125788178Y-74423428D02*
X125752464Y-74316285D01*
X125752464Y-74316285D02*
X125752464Y-74244857D01*
X125752464Y-74244857D02*
X125788178Y-74137714D01*
X125788178Y-74137714D02*
X125823892Y-74102000D01*
X125823892Y-73816285D02*
X125788178Y-73780571D01*
X125788178Y-73780571D02*
X125752464Y-73709143D01*
X125752464Y-73709143D02*
X125752464Y-73530571D01*
X125752464Y-73530571D02*
X125788178Y-73459143D01*
X125788178Y-73459143D02*
X125823892Y-73423428D01*
X125823892Y-73423428D02*
X125895321Y-73387714D01*
X125895321Y-73387714D02*
X125966750Y-73387714D01*
X125966750Y-73387714D02*
X126073892Y-73423428D01*
X126073892Y-73423428D02*
X126502464Y-73852000D01*
X126502464Y-73852000D02*
X126502464Y-73387714D01*
X124588999Y-85015464D02*
X124338999Y-84658321D01*
X124160428Y-85015464D02*
X124160428Y-84265464D01*
X124160428Y-84265464D02*
X124446142Y-84265464D01*
X124446142Y-84265464D02*
X124517571Y-84301178D01*
X124517571Y-84301178D02*
X124553285Y-84336892D01*
X124553285Y-84336892D02*
X124588999Y-84408321D01*
X124588999Y-84408321D02*
X124588999Y-84515464D01*
X124588999Y-84515464D02*
X124553285Y-84586892D01*
X124553285Y-84586892D02*
X124517571Y-84622607D01*
X124517571Y-84622607D02*
X124446142Y-84658321D01*
X124446142Y-84658321D02*
X124160428Y-84658321D01*
X124838999Y-84265464D02*
X125303285Y-84265464D01*
X125303285Y-84265464D02*
X125053285Y-84551178D01*
X125053285Y-84551178D02*
X125160428Y-84551178D01*
X125160428Y-84551178D02*
X125231857Y-84586892D01*
X125231857Y-84586892D02*
X125267571Y-84622607D01*
X125267571Y-84622607D02*
X125303285Y-84694035D01*
X125303285Y-84694035D02*
X125303285Y-84872607D01*
X125303285Y-84872607D02*
X125267571Y-84944035D01*
X125267571Y-84944035D02*
X125231857Y-84979750D01*
X125231857Y-84979750D02*
X125160428Y-85015464D01*
X125160428Y-85015464D02*
X124946142Y-85015464D01*
X124946142Y-85015464D02*
X124874714Y-84979750D01*
X124874714Y-84979750D02*
X124838999Y-84944035D01*
D10*
X108731819Y-80851333D02*
X109446104Y-80851333D01*
X109446104Y-80851333D02*
X109588961Y-80898952D01*
X109588961Y-80898952D02*
X109684200Y-80994190D01*
X109684200Y-80994190D02*
X109731819Y-81137047D01*
X109731819Y-81137047D02*
X109731819Y-81232285D01*
X109731819Y-79851333D02*
X109731819Y-80422761D01*
X109731819Y-80137047D02*
X108731819Y-80137047D01*
X108731819Y-80137047D02*
X108874676Y-80232285D01*
X108874676Y-80232285D02*
X108969914Y-80327523D01*
X108969914Y-80327523D02*
X109017533Y-80422761D01*
D12*
X113052264Y-84553571D02*
X112302264Y-84553571D01*
X112302264Y-84553571D02*
X112302264Y-84375000D01*
X112302264Y-84375000D02*
X112337978Y-84267857D01*
X112337978Y-84267857D02*
X112409407Y-84196428D01*
X112409407Y-84196428D02*
X112480835Y-84160714D01*
X112480835Y-84160714D02*
X112623692Y-84125000D01*
X112623692Y-84125000D02*
X112730835Y-84125000D01*
X112730835Y-84125000D02*
X112873692Y-84160714D01*
X112873692Y-84160714D02*
X112945121Y-84196428D01*
X112945121Y-84196428D02*
X113016550Y-84267857D01*
X113016550Y-84267857D02*
X113052264Y-84375000D01*
X113052264Y-84375000D02*
X113052264Y-84553571D01*
X112302264Y-83482143D02*
X112302264Y-83625000D01*
X112302264Y-83625000D02*
X112337978Y-83696428D01*
X112337978Y-83696428D02*
X112373692Y-83732143D01*
X112373692Y-83732143D02*
X112480835Y-83803571D01*
X112480835Y-83803571D02*
X112623692Y-83839285D01*
X112623692Y-83839285D02*
X112909407Y-83839285D01*
X112909407Y-83839285D02*
X112980835Y-83803571D01*
X112980835Y-83803571D02*
X113016550Y-83767857D01*
X113016550Y-83767857D02*
X113052264Y-83696428D01*
X113052264Y-83696428D02*
X113052264Y-83553571D01*
X113052264Y-83553571D02*
X113016550Y-83482143D01*
X113016550Y-83482143D02*
X112980835Y-83446428D01*
X112980835Y-83446428D02*
X112909407Y-83410714D01*
X112909407Y-83410714D02*
X112730835Y-83410714D01*
X112730835Y-83410714D02*
X112659407Y-83446428D01*
X112659407Y-83446428D02*
X112623692Y-83482143D01*
X112623692Y-83482143D02*
X112587978Y-83553571D01*
X112587978Y-83553571D02*
X112587978Y-83696428D01*
X112587978Y-83696428D02*
X112623692Y-83767857D01*
X112623692Y-83767857D02*
X112659407Y-83803571D01*
X112659407Y-83803571D02*
X112730835Y-83839285D01*
X116313035Y-77468000D02*
X116348750Y-77503714D01*
X116348750Y-77503714D02*
X116384464Y-77610857D01*
X116384464Y-77610857D02*
X116384464Y-77682285D01*
X116384464Y-77682285D02*
X116348750Y-77789428D01*
X116348750Y-77789428D02*
X116277321Y-77860857D01*
X116277321Y-77860857D02*
X116205892Y-77896571D01*
X116205892Y-77896571D02*
X116063035Y-77932285D01*
X116063035Y-77932285D02*
X115955892Y-77932285D01*
X115955892Y-77932285D02*
X115813035Y-77896571D01*
X115813035Y-77896571D02*
X115741607Y-77860857D01*
X115741607Y-77860857D02*
X115670178Y-77789428D01*
X115670178Y-77789428D02*
X115634464Y-77682285D01*
X115634464Y-77682285D02*
X115634464Y-77610857D01*
X115634464Y-77610857D02*
X115670178Y-77503714D01*
X115670178Y-77503714D02*
X115705892Y-77468000D01*
X115884464Y-76825143D02*
X116384464Y-76825143D01*
X115598750Y-77003714D02*
X116134464Y-77182285D01*
X116134464Y-77182285D02*
X116134464Y-76718000D01*
X130347428Y-79712464D02*
X130347428Y-78962464D01*
X130347428Y-78962464D02*
X130525999Y-78962464D01*
X130525999Y-78962464D02*
X130633142Y-78998178D01*
X130633142Y-78998178D02*
X130704571Y-79069607D01*
X130704571Y-79069607D02*
X130740285Y-79141035D01*
X130740285Y-79141035D02*
X130775999Y-79283892D01*
X130775999Y-79283892D02*
X130775999Y-79391035D01*
X130775999Y-79391035D02*
X130740285Y-79533892D01*
X130740285Y-79533892D02*
X130704571Y-79605321D01*
X130704571Y-79605321D02*
X130633142Y-79676750D01*
X130633142Y-79676750D02*
X130525999Y-79712464D01*
X130525999Y-79712464D02*
X130347428Y-79712464D01*
X131061714Y-79033892D02*
X131097428Y-78998178D01*
X131097428Y-78998178D02*
X131168857Y-78962464D01*
X131168857Y-78962464D02*
X131347428Y-78962464D01*
X131347428Y-78962464D02*
X131418857Y-78998178D01*
X131418857Y-78998178D02*
X131454571Y-79033892D01*
X131454571Y-79033892D02*
X131490285Y-79105321D01*
X131490285Y-79105321D02*
X131490285Y-79176750D01*
X131490285Y-79176750D02*
X131454571Y-79283892D01*
X131454571Y-79283892D02*
X131025999Y-79712464D01*
X131025999Y-79712464D02*
X131490285Y-79712464D01*
D10*
X118689580Y-81253666D02*
X118737200Y-81301285D01*
X118737200Y-81301285D02*
X118784819Y-81444142D01*
X118784819Y-81444142D02*
X118784819Y-81539380D01*
X118784819Y-81539380D02*
X118737200Y-81682237D01*
X118737200Y-81682237D02*
X118641961Y-81777475D01*
X118641961Y-81777475D02*
X118546723Y-81825094D01*
X118546723Y-81825094D02*
X118356247Y-81872713D01*
X118356247Y-81872713D02*
X118213390Y-81872713D01*
X118213390Y-81872713D02*
X118022914Y-81825094D01*
X118022914Y-81825094D02*
X117927676Y-81777475D01*
X117927676Y-81777475D02*
X117832438Y-81682237D01*
X117832438Y-81682237D02*
X117784819Y-81539380D01*
X117784819Y-81539380D02*
X117784819Y-81444142D01*
X117784819Y-81444142D02*
X117832438Y-81301285D01*
X117832438Y-81301285D02*
X117880057Y-81253666D01*
X118784819Y-80301285D02*
X118784819Y-80872713D01*
X118784819Y-80586999D02*
X117784819Y-80586999D01*
X117784819Y-80586999D02*
X117927676Y-80682237D01*
X117927676Y-80682237D02*
X118022914Y-80777475D01*
X118022914Y-80777475D02*
X118070533Y-80872713D01*
D12*
X130775999Y-84634464D02*
X130525999Y-84277321D01*
X130347428Y-84634464D02*
X130347428Y-83884464D01*
X130347428Y-83884464D02*
X130633142Y-83884464D01*
X130633142Y-83884464D02*
X130704571Y-83920178D01*
X130704571Y-83920178D02*
X130740285Y-83955892D01*
X130740285Y-83955892D02*
X130775999Y-84027321D01*
X130775999Y-84027321D02*
X130775999Y-84134464D01*
X130775999Y-84134464D02*
X130740285Y-84205892D01*
X130740285Y-84205892D02*
X130704571Y-84241607D01*
X130704571Y-84241607D02*
X130633142Y-84277321D01*
X130633142Y-84277321D02*
X130347428Y-84277321D01*
X131418857Y-84134464D02*
X131418857Y-84634464D01*
X131240285Y-83848750D02*
X131061714Y-84384464D01*
X131061714Y-84384464D02*
X131525999Y-84384464D01*
D13*
%TO.C,D8*%
X110859000Y-84724000D02*
X110859000Y-83524000D01*
X111899000Y-83524000D02*
X111899000Y-84724000D01*
D11*
X111479000Y-85624000D02*
G75*
G02*
X111279000Y-85624000I-100000J0D01*
G01*
X111279000Y-85624000D02*
G75*
G02*
X111479000Y-85624000I100000J0D01*
G01*
D13*
%TO.C,D7*%
X115304000Y-84776000D02*
X115304000Y-83576000D01*
X116344000Y-83576000D02*
X116344000Y-84776000D01*
D11*
X115924000Y-85676000D02*
G75*
G02*
X115724000Y-85676000I-100000J0D01*
G01*
X115724000Y-85676000D02*
G75*
G02*
X115924000Y-85676000I100000J0D01*
G01*
D14*
%TO.C,D1*%
X129913000Y-75057000D02*
G75*
G02*
X129813000Y-75057000I-50000J0D01*
G01*
X129813000Y-75057000D02*
G75*
G02*
X129913000Y-75057000I50000J0D01*
G01*
D15*
%TO.C,J2*%
X133945000Y-74450000D02*
X135215000Y-74450000D01*
X133945000Y-75720000D02*
X133945000Y-74450000D01*
X136292358Y-77830000D02*
X136605000Y-77830000D01*
X136292358Y-78690000D02*
X136605000Y-78690000D01*
X136292358Y-80370000D02*
X136605000Y-80370000D01*
X136292358Y-81230000D02*
X136605000Y-81230000D01*
X136292358Y-82910000D02*
X136605000Y-82910000D01*
X136292358Y-83770000D02*
X136605000Y-83770000D01*
X136292358Y-85450000D02*
X136605000Y-85450000D01*
X136292358Y-86310000D02*
X136605000Y-86310000D01*
X136375000Y-75290000D02*
X136605000Y-75290000D01*
X136375000Y-76150000D02*
X136605000Y-76150000D01*
X136605000Y-76990000D02*
X139365000Y-76990000D01*
X136605000Y-79530000D02*
X139365000Y-79530000D01*
X136605000Y-82070000D02*
X139365000Y-82070000D01*
X136605000Y-84610000D02*
X139365000Y-84610000D01*
X139365000Y-77830000D02*
X145365000Y-77830000D01*
X139365000Y-80370000D02*
X145365000Y-80370000D01*
X139365000Y-82910000D02*
X145365000Y-82910000D01*
X139365000Y-85450000D02*
X145365000Y-85450000D01*
X145365000Y-77830000D02*
X145365000Y-78690000D01*
X145365000Y-78690000D02*
X139365000Y-78690000D01*
X145365000Y-80370000D02*
X145365000Y-81230000D01*
X145365000Y-81230000D02*
X139365000Y-81230000D01*
X145365000Y-82910000D02*
X145365000Y-83770000D01*
X145365000Y-83770000D02*
X139365000Y-83770000D01*
X145365000Y-85450000D02*
X145365000Y-86310000D01*
X145365000Y-86310000D02*
X139365000Y-86310000D01*
X136605000Y-74340000D02*
X139365000Y-74340000D01*
X139365000Y-87260000D01*
X136605000Y-87260000D01*
X136605000Y-74340000D01*
X139365000Y-75290000D02*
X145365000Y-75290000D01*
X145365000Y-76150000D01*
X139365000Y-76150000D01*
X139365000Y-75290000D01*
G36*
X139365000Y-75290000D02*
G01*
X145365000Y-75290000D01*
X145365000Y-76150000D01*
X139365000Y-76150000D01*
X139365000Y-75290000D01*
G37*
%TO.C,U1*%
X121965500Y-77273000D02*
X122690500Y-77273000D01*
X121965500Y-77998000D02*
X121965500Y-77273000D01*
X121965500Y-82493000D02*
X121965500Y-81768000D01*
X122690500Y-82493000D02*
X121965500Y-82493000D01*
X126460500Y-77273000D02*
X127185500Y-77273000D01*
X127185500Y-77273000D02*
X127185500Y-77998000D01*
X127185500Y-81768000D02*
X127185500Y-82493000D01*
X127185500Y-82493000D02*
X126460500Y-82493000D01*
X121465500Y-78383000D02*
X121135500Y-78623000D01*
X121135500Y-78143000D01*
X121465500Y-78383000D01*
G36*
X121465500Y-78383000D02*
G01*
X121135500Y-78623000D01*
X121135500Y-78143000D01*
X121465500Y-78383000D01*
G37*
%TO.C,R5*%
X130663742Y-87107500D02*
X131138258Y-87107500D01*
X130663742Y-88152500D02*
X131138258Y-88152500D01*
%TO.C,J1*%
X99732000Y-75818000D02*
X99732000Y-85218000D01*
X101632000Y-75818000D02*
X99732000Y-75818000D01*
X101632000Y-85218000D02*
X99732000Y-85218000D01*
X105532000Y-75818000D02*
X103532000Y-75818000D01*
X105532000Y-85218000D02*
X103532000Y-85218000D01*
D13*
%TO.C,D6*%
X113145000Y-84801000D02*
X113145000Y-83601000D01*
X114185000Y-83601000D02*
X114185000Y-84801000D01*
D11*
X113765000Y-85701000D02*
G75*
G02*
X113565000Y-85701000I-100000J0D01*
G01*
X113565000Y-85701000D02*
G75*
G02*
X113765000Y-85701000I100000J0D01*
G01*
D14*
%TO.C,D2*%
X130092000Y-80422000D02*
G75*
G02*
X129992000Y-80422000I-50000J0D01*
G01*
X129992000Y-80422000D02*
G75*
G02*
X130092000Y-80422000I50000J0D01*
G01*
%TD*%
M02*
