M48
; DRILL file {KiCad 9.0.7} date 2026-08-05T19:59:13+0530
; FORMAT={-:-/ absolute / metric / decimal}
; #@! TF.CreationDate,2026-08-05T19:59:13+05:30
; #@! TF.GenerationSoftware,Kicad,Pcbnew,9.0.7
; #@! TF.FileFunction,Plated,1,2,PTH
FMAT,2
METRIC
; #@! TA.AperFunction,Plated,PTH,ViaDrill
T1C0.300
; #@! TA.AperFunction,Plated,PTH,ComponentDrill
T2C0.600
; #@! TA.AperFunction,Plated,PTH,ComponentDrill
T3C1.000
%
G90
G05
T1
X105.41Y-80.391
X109.6Y-80.645
X112.044Y-79.844
X112.649Y-84.836
X112.776Y-82.804
X115.6Y-77.023
X115.8Y-82.4
X116.4Y-80.324
X117.856Y-81.407
X119.507Y-78.507
X119.634Y-85.09
X121.4Y-83.8
X121.8Y-85.2
X127.635Y-76.073
X127.889Y-74.422
X129.135Y-76.732
X132.334Y-85.344
X132.6Y-86.8
T3
X135.215Y-75.72
X135.215Y-78.26
X135.215Y-80.8
X135.215Y-83.34
X135.215Y-85.88
T2
G00X102.882Y-76.198
M15
G01X102.282Y-76.198
M16
G05
G00X102.882Y-84.838
M15
G01X102.282Y-84.838
M16
G05
G00X107.312Y-76.198
M15
G01X106.212Y-76.198
M16
G05
G00X107.312Y-84.838
M15
G01X106.212Y-84.838
M16
G05
M30
